<svg width="85" height="80" viewBox="0 0 85 80" fill="none" xmlns="http://www.w3.org/2000/svg">
<path fill-rule="evenodd" clip-rule="evenodd" d="M35.3938 11.3938C35.8861 10.9016 36.5538 10.625 37.25 10.625H58.25C62.5994 10.625 66.125 14.1508 66.125 18.5V60.5C66.125 64.8494 62.5994 68.375 58.25 68.375H26.75C22.4008 68.375 18.875 64.8494 18.875 60.5V29C18.875 28.3038 19.1516 27.6361 19.6438 27.1438L35.3938 11.3938ZM58.25 15.875H39.875V29C39.875 30.4497 38.6998 31.625 37.25 31.625H24.125V60.5C24.125 61.9498 25.3003 63.125 26.75 63.125H58.25C59.6998 63.125 60.875 61.9498 60.875 60.5V18.5C60.875 17.0503 59.6998 15.875 58.25 15.875ZM27.8373 26.375H34.625V19.5873L27.8373 26.375ZM29.375 42.125C29.375 40.6752 30.5503 39.5 32 39.5H53C54.4498 39.5 55.625 40.6752 55.625 42.125C55.625 43.5748 54.4498 44.75 53 44.75H32C30.5503 44.75 29.375 43.5748 29.375 42.125ZM29.375 52.625C29.375 51.1752 30.5503 50 32 50H53C54.4498 50 55.625 51.1752 55.625 52.625C55.625 54.0748 54.4498 55.25 53 55.25H32C30.5503 55.25 29.375 54.0748 29.375 52.625Z" fill="#726E5A"/>
</svg>
