<svg width="84" height="79" viewBox="0 0 84 79" fill="none" xmlns="http://www.w3.org/2000/svg">
<path d="M72.682 0H43.7286C43.7235 0 43.7187 0 43.7136 0H11.3183C5.07756 0 0 5.62302 0 12.5349V66.4651C0 73.377 5.07756 79 11.3183 79H72.6817C78.9227 79 84 73.377 84 66.4651V12.5349C84.0003 5.62302 78.923 0 72.682 0ZM4.51419 66.4651V12.5349C4.51419 8.37971 7.56668 4.99943 11.3183 4.99943H40.021L24.2553 38.3403C23.8891 39.1152 23.915 40.0458 24.3239 40.794C24.7326 41.5423 25.4651 41.9995 26.2551 41.9995H39.7435V60.5828C36.7972 60.7524 33.8973 60.4768 31.0531 59.7512C24.8142 58.16 21.1649 54.8801 21.1189 54.8381C20.1625 53.9579 18.7438 54.0992 17.9454 55.1557C17.1452 56.2143 17.2713 57.7908 18.2271 58.677C18.4013 58.8383 22.5742 62.6532 29.7807 64.556C32.0592 65.1576 34.8095 65.6029 37.9604 65.6029C38.5412 65.6029 39.1362 65.5872 39.7438 65.5549V74.0002H11.3183C7.56668 74.0006 4.51419 70.6203 4.51419 66.4651ZM79.4861 66.4651C79.4861 70.6203 76.4336 74.0006 72.682 74.0006H44.2574V65.0206C48.8264 64.1844 53.9605 62.3549 59.516 58.9473C60.6066 58.2784 61.0008 56.7575 60.3968 55.5497C59.7928 54.3425 58.4193 53.9049 57.3287 54.5741C52.9057 57.2868 48.5393 59.0886 44.2571 59.9795V39.5002C44.2571 38.1193 43.2465 37.0005 42 37.0005H29.9847L45.1172 4.99943H72.682C76.4339 4.99943 79.4861 8.38004 79.4861 12.5349V66.4651Z" fill="#726E5A"/>
<path d="M58.5 14.1797C57.1193 14.1797 56 15.4294 56 16.9717V29.6184C56 31.1607 57.1193 32.4105 58.5 32.4105C59.8807 32.4105 61 31.1607 61 29.6184V16.9717C61 15.4294 59.8807 14.1797 58.5 14.1797Z" fill="#726E5A"/>
<path d="M17.5 32.4105C18.8807 32.4105 20 31.1607 20 29.6184V16.9717C20 15.4294 18.8807 14.1797 17.5 14.1797C16.1193 14.1797 15 15.4294 15 16.9717V29.6184C15 31.1604 16.1193 32.4105 17.5 32.4105Z" fill="#726E5A"/>
</svg>
