<svg width="85" height="80" viewBox="0 0 85 80" fill="none" xmlns="http://www.w3.org/2000/svg">

<path d="M24.3372 18.8599C24.4706 16.4993 25.0345 15.4727 26.6516 14.6484C28.3915 13.7612 31.1358 14.1741 34.3649 15.8092C35.7558 16.5139 35.8974 16.5282 38.3349 16.2157C41.5748 15.8002 45.7459 15.8016 48.7363 16.2195C50.9977 16.5355 51.1462 16.5197 52.5405 15.8136C57.124 13.4925 60.7428 13.6444 62.0532 16.2128C62.7072 17.4948 62.8287 20.8213 62.3215 23.565C62.0404 25.0861 62.0701 25.276 62.7476 26.2742C67.5135 33.2975 64.0795 44.6819 55.9127 48.9304C55.2877 49.2556 54.7611 49.4568 54.3319 49.6207C53.0139 50.1239 52.6138 50.2768 53.0983 52.5932C53.3316 53.7074 53.6125 56.4776 53.723 58.7495C53.9226 62.8562 53.9196 62.8849 53.1993 63.7227C52.219 64.8623 50.8059 64.8816 49.8485 63.7683C49.224 63.0423 49.163 62.6995 49.163 59.8984C49.163 55.7589 48.7093 53.0075 47.6372 50.6499C46.3624 47.8442 47.3075 46.798 50.2229 46.171C54.2753 45.2993 57.4403 42.7984 59.2044 39.0742C60.8817 35.534 61.1345 30.6418 58.1021 27.6665C57.2398 26.6417 57.1797 25.7135 57.7955 22.9145C58.0256 21.8684 58.2185 20.5188 58.2243 19.9151C58.233 18.9617 58.1461 18.8177 57.5606 18.8177C57.19 18.8177 55.7742 19.3568 54.4148 20.0155L52.2451 21.0671C52.0478 21.1627 51.8271 21.1994 51.6094 21.1745C46.0922 20.5412 40.8498 20.5314 35.3056 21.1769C35.087 21.2024 34.8654 21.1656 34.6674 21.0696L32.4988 20.0172C31.1393 19.3573 29.7235 18.8177 29.3531 18.8177C28.4966 18.8177 28.4837 19.4501 29.2644 23.2071C29.7413 25.5017 30.0623 26.0129 28.6836 27.8476C26.617 30.5977 26.1008 34.0127 27.209 37.6007C28.6057 42.1221 32.0259 45.1767 36.8344 46.1958C39.733 46.8102 40.4907 47.6118 39.3838 50.9356C38.5125 53.5514 37.9616 54.2256 36.6954 54.2256C34.9917 54.2256 33.9245 52.7497 34.5118 51.2054C34.7705 50.5248 34.6935 50.4521 33.0975 49.87C28.2256 48.0938 24.4993 44.1124 22.7956 38.8627C21.4788 34.8054 22.0582 29.5244 24.1707 26.3324C24.8899 25.2456 24.9011 25.1534 24.5654 23.0728C24.3755 21.895 24.2728 19.9994 24.3372 18.8599Z" fill="#726E5A"/>
<path d="M21.3023 48.333C20.6001 47.28 19.1775 46.9953 18.1243 47.6975C17.0711 48.3994 14.1658 48.7908 17.4887 50.8754C18.0071 51.6529 18.627 52.2916 19.1536 52.818C19.2507 52.9152 19.345 53.0089 19.4371 53.1003C19.8783 53.5385 20.2676 53.9253 20.6588 54.3846C21.524 55.4 22.3869 56.7677 22.8775 59.2202C23.096 60.3127 23.8812 60.9012 24.3163 61.1583C24.7882 61.437 25.3037 61.6013 25.728 61.7083C26.596 61.9271 27.6493 62.0408 28.6493 62.107C29.747 62.1799 30.9361 62.2035 31.9997 62.2099C32.0005 63.4747 33.026 64.5 34.2913 64.5C35.5571 64.5 36.583 63.474 36.583 62.2083V59.9167C36.583 58.651 35.5571 57.625 34.2913 57.625C34.0753 57.625 33.8416 57.6257 33.594 57.6266C32.2489 57.6307 30.4963 57.636 28.9522 57.5338C28.2076 57.4845 27.5957 57.4146 27.1469 57.3291C26.4557 54.616 25.3394 52.8109 24.1478 51.4123C23.6211 50.7942 23.0758 50.2534 22.6322 49.8134C22.5491 49.7311 22.4697 49.6523 22.3945 49.5771C21.8826 49.0654 21.5479 48.7015 21.3023 48.333Z" fill="#726E5A"/>
</svg>
