<svg width="85" height="80" viewBox="0 0 85 80" fill="none" xmlns="http://www.w3.org/2000/svg">
<path d="M15.2396 63.9296L19.1189 67.8088C21.2548 69.8957 24.107 70.4928 26.2676 68.1113L52.7676 39.6113C53.8233 40.3479 53.5896 40.0652 54.7927 39.8197L57.4198 39.2795L59.1631 41.0227L59.0404 42.324C58.8685 43.6743 59.2612 44.7055 60.5132 45.9576L62.5758 47.9954C63.8278 49.2721 65.4972 49.3458 66.7004 48.1427L74.8763 39.967C76.0791 38.7639 76.0056 37.1189 74.7536 35.8423L72.691 33.7799C71.439 32.5277 70.3831 32.0858 69.0572 32.2822L68.3008 31.9121L66.7004 29.9121L66.7985 27.8874C67.1424 26.4635 66.7739 25.3095 65.2272 23.7872L59.1631 17.7476C50.2506 8.88437 38.834 9.15437 31.0264 17.0356C29.9462 18.1158 29.848 19.589 30.5355 20.6692C31.1001 21.6022 32.3032 22.1669 33.9482 21.7495C37.7537 20.7919 41.5592 21.0866 45.2912 23.6155L43.7198 27.5929C43.7198 26.2683 43.1305 29.066 43.7198 27.5929L15.7062 57.2024C13.3492 59.3875 13.0791 61.769 15.2396 63.9296ZM34.9303 18.0176C42.377 15.7129 45.2912 15 51.8008 18.0176L63.1404 27.5929C63.7298 28.1822 63.2878 27.47 63.1158 28.2067L62.1831 32.135L66.1358 36.0878L68.5418 35.8668C69.2538 35.7931 69.4745 35.8423 70.0638 36.4069L70.8008 37.0453L64.3008 43.3306H63.1404C62.5758 42.7659 62.5265 42.5449 62.6004 41.8329L62.8212 39.4022L58.8931 35.474L54.8172 36.2597C54.1052 36.4069 54.4146 35.0259 53.8008 34.4121L48.3008 29.4121C47.7115 28.8228 47.0097 29.3851 47.3289 28.5994L49.7351 22.8544C45.7086 18.9997 40.0616 15.3906 34.9303 17.0356C34.7093 17.1092 34.8811 18.5332 34.8075 18.4349C34.7339 18.3122 34.7339 18.1895 34.9303 18.0176ZM19.377 61.7129C19.377 61.7129 18.2841 61.6732 19.1189 60.9121L46.0277 33.9518L49.0966 37.0453L22.8008 62.9121C22.0397 63.7469 21.832 63.9186 20.8008 62.9121L19.377 61.7129Z" fill="#726E5A"/>
</svg>
