<svg width="85" height="80" viewBox="0 0 85 80" fill="none" xmlns="http://www.w3.org/2000/svg">
<path fill-rule="evenodd" clip-rule="evenodd" d="M65.3618 52.8831L65.3833 33.3074L50.5801 19.4188C46.1125 15.2328 38.8905 15.2328 34.4233 19.4188L19.6523 33.2736V52.873C19.6642 58.8008 24.7786 63.5975 31.077 63.5884H53.9371C60.2311 63.5979 65.3438 58.8069 65.3618 52.8831Z" stroke="#726E5A" stroke-width="6.336" stroke-linecap="round" stroke-linejoin="round"/>
<path d="M68.078 19.718C68.078 18.3183 66.8723 17.1836 65.3852 17.1836C63.8981 17.1836 62.6924 18.3183 62.6924 19.718H68.078ZM65.3852 33.3059H62.6924C62.6924 33.9793 62.9771 34.6251 63.4841 35.1005L65.3852 33.3059ZM69.3221 40.5782C70.3751 41.5666 72.0802 41.5639 73.1301 40.5728C74.1802 39.5814 74.1777 37.9769 73.1243 36.9885L69.3221 40.5782ZM21.5519 35.0668C22.6051 34.0787 22.6077 32.4739 21.5577 31.4826C20.5077 30.4914 18.8027 30.4889 17.7495 31.4771L21.5519 35.0668ZM11.8756 36.9885C10.8224 37.9769 10.8198 39.5814 11.8698 40.5728C12.9198 41.5639 14.6248 41.5666 15.678 40.5782L11.8756 36.9885ZM46.988 63.5869C46.988 64.9865 48.1936 66.1213 49.6808 66.1213C51.1679 66.1213 52.3736 64.9865 52.3736 63.5869H46.988ZM32.6264 63.5869C32.6264 64.9865 33.8321 66.1213 35.3192 66.1213C36.8063 66.1213 38.012 64.9865 38.012 63.5869H32.6264ZM62.6924 19.718V33.3059H68.078V19.718H62.6924ZM63.4841 35.1005L69.3221 40.5782L73.1243 36.9885L67.2863 31.5109L63.4841 35.1005ZM17.7495 31.4771L11.8756 36.9885L15.678 40.5782L21.5519 35.0668L17.7495 31.4771ZM52.3736 63.5869V57.5719H46.988V63.5869H52.3736ZM52.3736 57.5719C52.3736 52.4396 47.9531 48.2791 42.5 48.2791V53.3479C44.9788 53.3479 46.988 55.2389 46.988 57.5719H52.3736ZM42.5 48.2791C37.0469 48.2791 32.6264 52.4396 32.6264 57.5719H38.012C38.012 55.2389 40.0212 53.3479 42.5 53.3479V48.2791ZM32.6264 57.5719V63.5869H38.012V57.5719H32.6264Z" fill="#726E5A"/>
</svg>
