<svg width="85" height="80" viewBox="0 0 85 80" fill="none" xmlns="http://www.w3.org/2000/svg">
<path d="M25 29C27.2091 29 29 27.2091 29 25C29 22.7909 27.2091 21 25 21C22.7909 21 21 22.7909 21 25C21 27.2091 22.7909 29 25 29Z" fill="#726E5A"/>
<path d="M21 35.4C21 33.5222 22.1939 32 23.6667 32H26.3333C27.8061 32 29 33.5222 29 35.4V62.6C29 64.4778 27.8061 66 26.3333 66H23.6667C22.1939 66 21 64.4778 21 62.6V35.4Z" fill="#726E5A"/>
<path d="M41 66H42.5C44.2796 66 45 64.6 45.5 62.6V44.5C45.5 39.4 59 37.7 59 44.5V53.5V62.6C59 64.4778 60.2204 66 62 66C63.7796 66 65.5 64.4778 65.5 62.6V42.2C65.5 35.4 57.9444 34 51.5 34C45.0556 34 45 37.5 45 37.5V35.4C45 33.5222 42.7796 33.5 41 33.5C39.2204 33.5 38.4993 33.5 38.5009 35.4L38.5 62.6C38.5 64.4778 39.2204 66 41 66Z" fill="#726E5A"/>
</svg>
