<svg width="85" height="80" viewBox="0 0 85 80" fill="none" xmlns="http://www.w3.org/2000/svg">
<path d="M35.5793 55.1673H27.1659V46.6673M24.3241 49.2099L60.1339 17.1695C62.6074 14.9565 66.6173 14.9565 69.0908 17.1695C71.564 19.3825 71.564 22.9704 69.0908 25.1834L32.7527 57.6963C31.0551 59.2153 30.2064 59.9746 29.2668 60.6274C28.4322 61.2074 27.545 61.7242 26.6144 62.1721C25.5667 62.6765 24.447 63.0632 22.2075 63.837L14.5 66.5L16.9799 59.8426C17.8262 57.5708 18.2494 56.4346 18.838 55.3738C19.3607 54.4317 19.98 53.5353 20.688 52.6955C21.4851 51.75 22.4314 50.9034 24.3241 49.2099Z" stroke="#726E5A" stroke-width="5.625" stroke-linecap="round" stroke-linejoin="round"/>
</svg>
